<svg width="25" height="24" viewBox="0 0 25 24" fill="none" xmlns="http://www.w3.org/2000/svg">
<path fill-rule="evenodd" clip-rule="evenodd" d="M12.5 1C6.4225 1 1.5 5.9225 1.5 12C1.5 16.8675 4.64875 20.9788 9.02125 22.4362C9.57125 22.5325 9.7775 22.2025 9.7775 21.9137C9.7775 21.6525 9.76375 20.7862 9.76375 19.865C7 20.3737 6.285 19.1912 6.065 18.5725C5.94125 18.2562 5.405 17.28 4.9375 17.0187C4.5525 16.8125 4.0025 16.3038 4.92375 16.29C5.79 16.2762 6.40875 17.0875 6.615 17.4175C7.605 19.0812 9.18625 18.6137 9.81875 18.325C9.915 17.61 10.2038 17.1287 10.52 16.8537C8.0725 16.5787 5.515 15.63 5.515 11.4225C5.515 10.2262 5.94125 9.23625 6.6425 8.46625C6.5325 8.19125 6.1475 7.06375 6.7525 5.55125C6.7525 5.55125 7.67375 5.2625 9.7775 6.67875C10.6575 6.43125 11.5925 6.3075 12.5275 6.3075C13.4625 6.3075 14.3975 6.43125 15.2775 6.67875C17.3813 5.24875 18.3025 5.55125 18.3025 5.55125C18.9075 7.06375 18.5225 8.19125 18.4125 8.46625C19.1138 9.23625 19.54 10.2125 19.54 11.4225C19.54 15.6437 16.9688 16.5787 14.5212 16.8537C14.92 17.1975 15.2638 17.8575 15.2638 18.8887C15.2638 20.36 15.25 21.5425 15.25 21.9137C15.25 22.2025 15.4563 22.5462 16.0063 22.4362C18.1899 21.699 20.0874 20.2955 21.4317 18.4234C22.776 16.5513 23.4993 14.3048 23.5 12C23.5 5.9225 18.5775 1 12.5 1Z" fill="#323A56"/>
</svg>
